<svg width="96" height="96" version="1.1" xmlns="http://www.w3.org/2000/svg" desc="Created with imagetracer.js version 1.2.6" ><path fill="rgb(126,126,126)" stroke="rgb(126,126,126)" stroke-width="1" opacity="1" d="M 30.5 15 L 29.5 17 L 30.5 15 Z " /><path fill="rgb(126,126,126)" stroke="rgb(126,126,126)" stroke-width="1" opacity="1" d="M 28.5 18 L 29 22.5 L 28 22.5 L 28.5 18 Z " /><path fill="rgb(126,126,126)" stroke="rgb(126,126,126)" stroke-width="1" opacity="1" d="M 33.5 18 L 36 18.5 L 33.5 19 L 33.5 18 Z " /><path fill="rgb(126,126,126)" stroke="rgb(126,126,126)" stroke-width="1" opacity="1" d="M 42.5 22 L 43.5 24 L 42.5 22 Z " /><path fill="rgb(126,126,126)" stroke="rgb(126,126,126)" stroke-width="1" opacity="1" d="M 56.5 23 L 54.5 26 L 56.5 23 Z " /><path fill="rgb(126,126,126)" stroke="rgb(126,126,126)" stroke-width="1" opacity="1" d="M 60.5 25 L 62 27.5 L 61 27.5 L 60.5 25 Z " /><path fill="rgb(126,126,126)" stroke="rgb(126,126,126)" stroke-width="1" opacity="1" d="M 65.5 28 L 66 33.5 L 65 33.5 L 65.5 28 Z " /><path fill="rgb(126,126,126)" stroke="rgb(126,126,126)" stroke-width="1" opacity="1" d="M 32.5 29 L 33.5 31 L 32.5 29 Z " /><path fill="rgb(126,126,126)" stroke="rgb(126,126,126)" stroke-width="1" opacity="1" d="M 38.5 29 L 39.5 31 L 38.5 29 Z " /><path fill="rgb(126,126,126)" stroke="rgb(126,126,126)" stroke-width="1" opacity="1" d="M 47.5 36 L 48 38.5 L 47 38.5 L 47.5 36 Z " /><path fill="rgb(126,126,126)" stroke="rgb(126,126,126)" stroke-width="1" opacity="1" d="M 53.5 36 L 54 38 L 56 38.5 L 53 39 L 53.5 36 Z " /><path fill="rgb(126,126,126)" stroke="rgb(126,126,126)" stroke-width="1" opacity="1" d="M 51.5 52 L 52 54 L 55 54.5 L 52.5 55 L 51.5 52 Z " /><path fill="rgb(126,126,126)" stroke="rgb(126,126,126)" stroke-width="1" opacity="1" d="M 60.5 53 L 64 53.5 L 60.5 54 L 60.5 53 Z " /><path fill="rgb(126,126,126)" stroke="rgb(126,126,126)" stroke-width="1" opacity="1" d="M 38.5 54 L 47 54.5 L 38.5 55 L 38.5 54 Z " /><path fill="rgb(126,126,126)" stroke="rgb(126,126,126)" stroke-width="1" opacity="1" d="M 67.5 56 L 68 59.5 L 67 59.5 L 67.5 56 Z " /><path fill="rgb(126,126,126)" stroke="rgb(126,126,126)" stroke-width="1" opacity="1" d="M 59.5 57 L 62 57.5 L 59.5 58 L 59.5 57 Z " /><path fill="rgb(126,126,126)" stroke="rgb(126,126,126)" stroke-width="1" opacity="1" d="M 36.5 58 L 37 60.5 L 36 60.5 L 36.5 58 Z " /><path fill="rgb(126,126,126)" stroke="rgb(126,126,126)" stroke-width="1" opacity="1" d="M 57.5 61 L 62 61.5 L 57.5 62 L 57.5 61 Z " /><path fill="rgb(126,126,126)" stroke="rgb(126,126,126)" stroke-width="1" opacity="1" d="M 39.5 62 L 48 62.5 L 39.5 63 L 39.5 62 Z " /><path fill="rgb(126,126,126)" stroke="rgb(126,126,126)" stroke-width="1" opacity="1" d="M 66.5 63 L 64.5 66 L 66.5 63 Z " /><path fill="rgb(126,126,126)" stroke="rgb(126,126,126)" stroke-width="1" opacity="1" d="M 52.5 65 L 58 65.5 L 52.5 66 L 52.5 65 Z " /><path fill="rgb(126,126,126)" stroke="rgb(126,126,126)" stroke-width="1" opacity="1" d="M 60.5 65 L 61 67.5 L 60 67.5 L 60.5 65 Z " /><path fill="rgb(126,126,126)" stroke="rgb(126,126,126)" stroke-width="1" opacity="1" d="M 39.5 66 L 42 66.5 L 39.5 67 L 39.5 66 Z " /><path fill="rgb(126,126,126)" stroke="rgb(126,126,126)" stroke-width="1" opacity="1" d="M 35.5 67 L 36 69.5 L 35 69.5 L 35.5 67 Z " /><path fill="rgb(126,126,126)" stroke="rgb(126,126,126)" stroke-width="1" opacity="1" d="M 39.5 68 L 40 72.5 L 39 72.5 L 39.5 68 Z " /><path fill="rgb(126,126,126)" stroke="rgb(126,126,126)" stroke-width="1" opacity="1" d="M 63.5 70 L 64 72.5 L 63 72.5 L 63.5 70 Z " /><path fill="rgb(126,126,126)" stroke="rgb(126,126,126)" stroke-width="1" opacity="1" d="M 46.5 79 L 58 79.5 L 46.5 80 L 46.5 79 Z " /><path fill="rgb(126,126,126)" stroke="rgb(126,126,126)" stroke-width="1" opacity="1" d="M 43.5 83 L 46 83.5 L 43.5 84 L 43.5 83 Z " /><path fill="rgb(252,252,252)" stroke="rgb(252,252,252)" stroke-width="1" opacity="1" d="M 27.5 19 L 28 21.5 L 27 21.5 L 27.5 19 Z " /><path fill="rgb(252,252,252)" stroke="rgb(252,252,252)" stroke-width="1" opacity="1" d="M 40.5 21 L 41.5 23 L 40.5 21 Z " /><path fill="rgb(252,252,252)" stroke="rgb(252,252,252)" stroke-width="1" opacity="1" d="M 30.5 28 L 31.5 30 L 30.5 28 Z " /><path fill="rgb(252,252,252)" stroke="rgb(252,252,252)" stroke-width="1" opacity="1" d="M 66.5 29 L 67 31.5 L 66 31.5 L 66.5 29 Z " /><path fill="rgb(252,252,252)" stroke="rgb(252,252,252)" stroke-width="1" opacity="1" d="M 33.5 31 L 34.5 33 L 33.5 31 Z " /><path fill="rgb(252,252,252)" stroke="rgb(252,252,252)" stroke-width="1" opacity="1" d="M 40.5 53 L 47 53.5 L 40.5 54 L 40.5 53 Z " /><path fill="rgb(252,252,252)" stroke="rgb(252,252,252)" stroke-width="1" opacity="1" d="M 43.5 61 L 47 61.5 L 43.5 62 L 43.5 61 Z " /><path fill="rgb(252,252,252)" stroke="rgb(252,252,252)" stroke-width="1" opacity="1" d="M 49.5 78 L 55 78.5 L 49.5 79 L 49.5 78 Z " /><path fill="rgb(252,252,252)" stroke="rgb(252,252,252)" stroke-width="1" opacity="1" d="M 37.5 81 L 38.5 83 L 37.5 81 Z " /><path fill="rgb(255,255,255)" stroke="rgb(255,255,255)" stroke-width="1" opacity="0.9921568627450981" d="M 42.5 0 Q 52.7 -1.2 59 1.5 L 54.5 2 L 53.5 1 L 42.5 1 L 37.5 2 L 37.5 1 L 42.5 0 Z " /><path fill="rgb(255,255,255)" stroke="rgb(255,255,255)" stroke-width="1" opacity="0.9921568627450981" d="M 28.5 4 L 30 4.5 Q 18.2 9.2 11 18.5 L 8.5 22 L 10 19.5 L 18.5 10 L 28.5 4 Z " /><path fill="rgb(255,255,255)" stroke="rgb(255,255,255)" stroke-width="1" opacity="0.9921568627450981" d="M 66.5 4 Q 78.8 8.8 86 18.5 L 88 21.5 L 85 19.5 L 77.5 11 L 66.5 5 L 66.5 4 Z " /><path fill="rgb(255,255,255)" stroke="rgb(255,255,255)" stroke-width="1" opacity="0.9921568627450981" d="M 7.5 23 L 7 24.5 L 4.5 30 L 4 28.5 L 7.5 23 Z " /><path fill="rgb(255,255,255)" stroke="rgb(255,255,255)" stroke-width="1" opacity="0.9921568627450981" d="M 88.5 23 L 92 29.5 L 91 29.5 L 88.5 23 Z " /><path fill="rgb(255,255,255)" stroke="rgb(255,255,255)" stroke-width="1" opacity="0.9921568627450981" d="M 92.5 31 L 94 35.5 L 93 35.5 L 92.5 31 Z " /><path fill="rgb(255,255,255)" stroke="rgb(255,255,255)" stroke-width="1" opacity="0.9921568627450981" d="M 1.5 37 L 2 41.5 L 1 42.5 L 1 53.5 L 2 58.5 L 1 58.5 L 0 42.5 L 1.5 37 Z " /><path fill="rgb(255,255,255)" stroke="rgb(255,255,255)" stroke-width="1" opacity="0.9921568627450981" d="M 94.5 37 Q 97.2 43.3 96 53.5 L 94.5 59 L 94 54.5 L 95 53.5 L 95 42.5 Q 92.6 41.1 94.5 37 Z " /><path fill="rgb(255,255,255)" stroke="rgb(255,255,255)" stroke-width="1" opacity="0.9921568627450981" d="M 93.5 60 L 94 62.5 L 92.5 65 L 92 63.5 L 93.5 60 Z " /><path fill="rgb(255,255,255)" stroke="rgb(255,255,255)" stroke-width="1" opacity="0.9921568627450981" d="M 4.5 66 L 8 72.5 L 6 71.5 L 4.5 66 Z " /><path fill="rgb(255,255,255)" stroke="rgb(255,255,255)" stroke-width="1" opacity="0.9921568627450981" d="M 91.5 66 L 92 67.5 L 88.5 73 L 89 71.5 L 91.5 66 Z " /><path fill="rgb(255,255,255)" stroke="rgb(255,255,255)" stroke-width="1" opacity="0.9921568627450981" d="M 8.5 74 L 18.5 85 L 30 91.5 L 28.5 92 Q 17.2 86.8 10 77.5 L 8.5 74 Z " /><path fill="rgb(255,255,255)" stroke="rgb(255,255,255)" stroke-width="1" opacity="0.9921568627450981" d="M 87.5 74 L 86 76.5 L 77.5 86 L 66.5 92 L 66.5 91 Q 78.1 86.6 85 77.5 L 87.5 74 Z " /><path fill="rgb(255,255,255)" stroke="rgb(255,255,255)" stroke-width="1" opacity="0.9921568627450981" d="M 31.5 92 L 36 93.5 L 33.5 94 L 31.5 92 Z " /><path fill="rgb(255,255,255)" stroke="rgb(255,255,255)" stroke-width="1" opacity="0.9921568627450981" d="M 63.5 92 L 65 92.5 L 60.5 94 L 60.5 93 L 63.5 92 Z " /><path fill="rgb(255,255,255)" stroke="rgb(255,255,255)" stroke-width="1" opacity="0.9921568627450981" d="M 37.5 94 L 53.5 95 L 58.5 94 L 58.5 95 L 42.5 96 L 37.5 95 L 37.5 94 Z " /><path fill="rgb(0,0,0)" stroke="rgb(0,0,0)" stroke-width="1" opacity="0" d="M 0 0 L 36 0.5 Q 19.7 4.2 11 15.5 Q 3.4 23.4 0.5 36 L 0 0 Z " /><path fill="rgb(0,0,0)" stroke="rgb(0,0,0)" stroke-width="1" opacity="0" d="M 60.5 0 L 96 0 L 96 35.5 L 95 35.5 Q 91.1 18.9 79.5 10 L 68.5 3 L 60.5 1 L 60.5 0 Z " /><path fill="rgb(0,0,0)" stroke="rgb(0,0,0)" stroke-width="1" opacity="0" d="M 0.5 60 Q 4.7 76.8 16.5 86 Q 23.9 93.1 36 95.5 L 0 96 L 0.5 60 Z " /><path fill="rgb(0,0,0)" stroke="rgb(0,0,0)" stroke-width="1" opacity="0" d="M 95.5 60 L 96 96 L 60 95.5 Q 76.8 91.3 86 79.5 Q 92.9 71.9 95.5 60 Z " /><path fill="rgb(52,52,52)" stroke="rgb(52,52,52)" stroke-width="1" opacity="1" d="M 43.5 18 L 45.5 21 L 43.5 18 Z " /><path fill="rgb(52,52,52)" stroke="rgb(52,52,52)" stroke-width="1" opacity="1" d="M 41.5 20 L 42.5 22 L 41.5 20 Z " /><path fill="rgb(52,52,52)" stroke="rgb(52,52,52)" stroke-width="1" opacity="1" d="M 58.5 22 L 60 22.5 L 57.5 24 L 58.5 22 Z " /><path fill="rgb(52,52,52)" stroke="rgb(52,52,52)" stroke-width="1" opacity="1" d="M 33.5 25 L 37.5 30 L 33.5 25 Z " /><path fill="rgb(52,52,52)" stroke="rgb(52,52,52)" stroke-width="1" opacity="1" d="M 31.5 27 L 32.5 29 L 31.5 27 Z " /><path fill="rgb(52,52,52)" stroke="rgb(52,52,52)" stroke-width="1" opacity="1" d="M 57.5 27 L 56.5 29 L 57.5 27 Z " /><path fill="rgb(52,52,52)" stroke="rgb(52,52,52)" stroke-width="1" opacity="1" d="M 34.5 30 L 36.5 33 L 34.5 30 Z " /><path fill="rgb(52,52,52)" stroke="rgb(52,52,52)" stroke-width="1" opacity="1" d="M 43.5 32 L 47 32.5 L 43.5 33 L 43.5 32 Z " /><path fill="rgb(52,52,52)" stroke="rgb(52,52,52)" stroke-width="1" opacity="1" d="M 43.5 35 L 48 35.5 L 43.5 36 L 43.5 35 Z " /><path fill="rgb(52,52,52)" stroke="rgb(52,52,52)" stroke-width="1" opacity="1" d="M 63.5 37 L 61.5 40 L 63.5 37 Z " /><path fill="rgb(52,52,52)" stroke="rgb(52,52,52)" stroke-width="1" opacity="1" d="M 52.5 42 L 52 43.5 L 51.5 52 L 51 43.5 L 52.5 42 Z " /><path fill="rgb(52,52,52)" stroke="rgb(52,52,52)" stroke-width="1" opacity="1" d="M 48.5 45 L 49 52.5 L 48 52.5 L 48.5 45 Z " /><path fill="rgb(52,52,52)" stroke="rgb(52,52,52)" stroke-width="1" opacity="1" d="M 55.5 54 L 59 54.5 L 55.5 55 L 55.5 54 Z " /><path fill="rgb(52,52,52)" stroke="rgb(52,52,52)" stroke-width="1" opacity="1" d="M 65.5 54 L 66.5 56 L 65.5 54 Z " /><path fill="rgb(52,52,52)" stroke="rgb(52,52,52)" stroke-width="1" opacity="1" d="M 36.5 57 L 59 57.5 L 36.5 58 L 36.5 57 Z " /><path fill="rgb(52,52,52)" stroke="rgb(52,52,52)" stroke-width="1" opacity="1" d="M 33.5 60 L 34 63.5 L 33 63.5 L 33.5 60 Z " /><path fill="rgb(52,52,52)" stroke="rgb(52,52,52)" stroke-width="1" opacity="1" d="M 48.5 62 L 54 62.5 L 48.5 63 L 48.5 62 Z " /><path fill="rgb(52,52,52)" stroke="rgb(52,52,52)" stroke-width="1" opacity="1" d="M 34.5 65 L 35.5 67 L 34.5 65 Z " /><path fill="rgb(52,52,52)" stroke="rgb(52,52,52)" stroke-width="1" opacity="1" d="M 46.5 65 L 52 65.5 L 46.5 66 L 46.5 65 Z " /><path fill="rgb(52,52,52)" stroke="rgb(52,52,52)" stroke-width="1" opacity="1" d="M 63.5 67 L 64 69.5 L 63 69.5 L 63.5 67 Z " /><path fill="rgb(52,52,52)" stroke="rgb(52,52,52)" stroke-width="1" opacity="1" d="M 60.5 68 L 61 70.5 L 60 70.5 L 60.5 68 Z " /><path fill="rgb(52,52,52)" stroke="rgb(52,52,52)" stroke-width="1" opacity="1" d="M 36.5 72 L 37 74.5 L 36 74.5 L 36.5 72 Z " /><path fill="rgb(52,52,52)" stroke="rgb(52,52,52)" stroke-width="1" opacity="1" d="M 39.5 73 L 40 75.5 L 39 75.5 L 39.5 73 Z " /><path fill="rgb(52,52,52)" stroke="rgb(52,52,52)" stroke-width="1" opacity="1" d="M 40.5 78 L 41.5 80 L 40.5 78 Z " /><path fill="rgb(52,52,52)" stroke="rgb(52,52,52)" stroke-width="1" opacity="1" d="M 38.5 80 L 42 82.5 L 40.5 83 L 38.5 80 Z " /><path fill="rgb(255,255,255)" stroke="rgb(255,255,255)" stroke-width="1" opacity="1" d="M 42.5 1 L 53.5 1 L 65.5 4 Q 77.5 9 85 18.5 L 94 36.5 L 95 53.5 Q 91.6 74.6 77.5 85 L 59.5 94 L 42.5 95 Q 21.6 91.4 11 77.5 L 2 59.5 L 1 42.5 Q 4.4 21.4 18.5 11 L 30.5 4 L 42.5 1 Z M 31 14 L 27 20 L 30 29 Q 35 35 43 37 Q 47 36 47 38 L 47 53 Q 37 51 32 56 L 32 64 L 35 68 Q 34 77 37 82 L 41 84 L 61 84 L 63 81 L 65 72 Q 63 64 67 65 L 69 59 L 68 54 L 66 53 L 53 53 L 53 45 L 55 43 L 61 42 L 66 37 L 67 32 L 66 25 L 63 21 L 57 22 L 52 29 L 48 22 L 39 14 L 31 14 Z " /><path fill="rgb(255,255,255)" stroke="rgb(255,255,255)" stroke-width="1" opacity="1" d="M 33.5 19 Q 40.9 20.1 44 25.5 L 45 31 Q 38.4 30.5 35 25.5 Q 32 23 33.5 19 Z " /><path fill="rgb(255,255,255)" stroke="rgb(255,255,255)" stroke-width="1" opacity="1" d="M 59.5 27 Q 62.5 26.5 61 33.5 L 54.5 38 L 55 36.5 L 59.5 27 Z " /><path fill="rgb(255,255,255)" stroke="rgb(255,255,255)" stroke-width="1" opacity="1" d="M 60.5 58 Q 64.3 57 63 60 L 58.5 61 L 43.5 61 L 38 62 L 38.5 59 L 59.5 59 L 60.5 58 Z " /><path fill="rgb(255,255,255)" stroke="rgb(255,255,255)" stroke-width="1" opacity="1" d="M 55.5 66 L 60 66.5 L 57 79 Q 54.9 77.4 49.5 78 Q 48.3 80.3 43.5 79 L 41 76.5 L 40 67 L 54.5 67 L 55.5 66 Z " /><path fill="rgb(255,255,255)" stroke="rgb(255,255,255)" stroke-width="1" opacity="0.40784313725490196" d="M 39.5 0 L 42 0.5 L 39.5 1 L 39.5 0 Z " /><path fill="rgb(255,255,255)" stroke="rgb(255,255,255)" stroke-width="1" opacity="0.40784313725490196" d="M 54.5 0 L 57 0.5 L 54.5 1 L 54.5 0 Z " /><path fill="rgb(255,255,255)" stroke="rgb(255,255,255)" stroke-width="1" opacity="0.40784313725490196" d="M 23.5 6 L 22.5 8 L 23.5 6 Z " /><path fill="rgb(255,255,255)" stroke="rgb(255,255,255)" stroke-width="1" opacity="0.40784313725490196" d="M 72.5 6 L 73.5 8 L 72.5 6 Z " /><path fill="rgb(255,255,255)" stroke="rgb(255,255,255)" stroke-width="1" opacity="0.40784313725490196" d="M 20.5 8 L 19.5 10 L 20.5 8 Z " /><path fill="rgb(255,255,255)" stroke="rgb(255,255,255)" stroke-width="1" opacity="0.40784313725490196" d="M 75.5 8 L 76.5 10 L 75.5 8 Z " /><path fill="rgb(255,255,255)" stroke="rgb(255,255,255)" stroke-width="1" opacity="0.40784313725490196" d="M 16.5 11 L 11.5 17 L 16.5 11 Z " /><path fill="rgb(255,255,255)" stroke="rgb(255,255,255)" stroke-width="1" opacity="0.40784313725490196" d="M 79.5 11 L 84.5 17 L 79.5 11 Z " /><path fill="rgb(255,255,255)" stroke="rgb(255,255,255)" stroke-width="1" opacity="0.40784313725490196" d="M 9.5 19 L 8.5 21 L 9.5 19 Z " /><path fill="rgb(255,255,255)" stroke="rgb(255,255,255)" stroke-width="1" opacity="0.40784313725490196" d="M 86.5 19 L 87.5 21 L 86.5 19 Z " /><path fill="rgb(255,255,255)" stroke="rgb(255,255,255)" stroke-width="1" opacity="0.40784313725490196" d="M 7.5 22 L 6.5 24 L 7.5 22 Z " /><path fill="rgb(255,255,255)" stroke="rgb(255,255,255)" stroke-width="1" opacity="0.40784313725490196" d="M 88.5 22 L 89.5 24 L 88.5 22 Z " /><path fill="rgb(255,255,255)" stroke="rgb(255,255,255)" stroke-width="1" opacity="0.40784313725490196" d="M 0.5 39 L 1 41.5 L 0 41.5 L 0.5 39 Z " /><path fill="rgb(255,255,255)" stroke="rgb(255,255,255)" stroke-width="1" opacity="0.40784313725490196" d="M 95.5 39 L 96 41.5 L 95 41.5 L 95.5 39 Z " /><path fill="rgb(255,255,255)" stroke="rgb(255,255,255)" stroke-width="1" opacity="0.40784313725490196" d="M 0.5 54 L 1 56.5 L 0 56.5 L 0.5 54 Z " /><path fill="rgb(255,255,255)" stroke="rgb(255,255,255)" stroke-width="1" opacity="0.40784313725490196" d="M 95.5 54 L 96 56.5 L 95 56.5 L 95.5 54 Z " /><path fill="rgb(255,255,255)" stroke="rgb(255,255,255)" stroke-width="1" opacity="0.40784313725490196" d="M 6.5 72 L 7.5 74 L 6.5 72 Z " /><path fill="rgb(255,255,255)" stroke="rgb(255,255,255)" stroke-width="1" opacity="0.40784313725490196" d="M 89.5 72 L 88.5 74 L 89.5 72 Z " /><path fill="rgb(255,255,255)" stroke="rgb(255,255,255)" stroke-width="1" opacity="0.40784313725490196" d="M 8.5 75 L 9.5 77 L 8.5 75 Z " /><path fill="rgb(255,255,255)" stroke="rgb(255,255,255)" stroke-width="1" opacity="0.40784313725490196" d="M 87.5 75 L 86.5 77 L 87.5 75 Z " /><path fill="rgb(255,255,255)" stroke="rgb(255,255,255)" stroke-width="1" opacity="0.40784313725490196" d="M 11.5 79 L 16.5 85 L 11.5 79 Z " /><path fill="rgb(255,255,255)" stroke="rgb(255,255,255)" stroke-width="1" opacity="0.40784313725490196" d="M 84.5 79 L 79.5 85 L 84.5 79 Z " /><path fill="rgb(255,255,255)" stroke="rgb(255,255,255)" stroke-width="1" opacity="0.40784313725490196" d="M 19.5 86 L 20.5 88 L 19.5 86 Z " /><path fill="rgb(255,255,255)" stroke="rgb(255,255,255)" stroke-width="1" opacity="0.40784313725490196" d="M 76.5 86 L 75.5 88 L 76.5 86 Z " /><path fill="rgb(255,255,255)" stroke="rgb(255,255,255)" stroke-width="1" opacity="0.40784313725490196" d="M 22.5 88 L 23.5 90 L 22.5 88 Z " /><path fill="rgb(255,255,255)" stroke="rgb(255,255,255)" stroke-width="1" opacity="0.40784313725490196" d="M 73.5 88 L 72.5 90 L 73.5 88 Z " /><path fill="rgb(255,255,255)" stroke="rgb(255,255,255)" stroke-width="1" opacity="0.40784313725490196" d="M 39.5 95 L 42 95.5 L 39.5 96 L 39.5 95 Z " /><path fill="rgb(255,255,255)" stroke="rgb(255,255,255)" stroke-width="1" opacity="0.40784313725490196" d="M 54.5 95 L 57 95.5 L 54.5 96 L 54.5 95 Z " /><path fill="rgb(255,255,255)" stroke="rgb(255,255,255)" stroke-width="1" opacity="0.07450980392156863" d="M 36.5 0 L 39 0.5 L 36.5 1 L 36.5 0 Z " /><path fill="rgb(255,255,255)" stroke="rgb(255,255,255)" stroke-width="1" opacity="0.07450980392156863" d="M 57.5 0 L 60 0.5 L 57.5 1 L 57.5 0 Z " /><path fill="rgb(255,255,255)" stroke="rgb(255,255,255)" stroke-width="1" opacity="0.07450980392156863" d="M 32.5 1 L 35 1.5 L 30.5 3 L 30.5 2 L 32.5 1 Z " /><path fill="rgb(255,255,255)" stroke="rgb(255,255,255)" stroke-width="1" opacity="0.07450980392156863" d="M 61.5 1 L 66 2.5 L 64.5 3 L 61.5 2 L 61.5 1 Z " /><path fill="rgb(255,255,255)" stroke="rgb(255,255,255)" stroke-width="1" opacity="0.07450980392156863" d="M 27.5 3 L 29 3.5 L 24.5 6 L 25.5 4 L 27.5 3 Z " /><path fill="rgb(255,255,255)" stroke="rgb(255,255,255)" stroke-width="1" opacity="0.07450980392156863" d="M 67.5 3 L 72 5.5 L 70.5 5 Q 66.7 4.8 67.5 3 Z " /><path fill="rgb(255,255,255)" stroke="rgb(255,255,255)" stroke-width="1" opacity="0.07450980392156863" d="M 22.5 6 L 21.5 8 L 11.5 16 L 16.5 10 L 22.5 6 Z " /><path fill="rgb(255,255,255)" stroke="rgb(255,255,255)" stroke-width="1" opacity="0.07450980392156863" d="M 73.5 6 L 86 16.5 L 90 22.5 L 88 21.5 L 79.5 11 Q 74.3 9.2 73.5 6 Z " /><path fill="rgb(255,255,255)" stroke="rgb(255,255,255)" stroke-width="1" opacity="0.07450980392156863" d="M 10.5 17 L 8 20.5 L 6.5 23 L 7 21.5 L 10.5 17 Z " /><path fill="rgb(255,255,255)" stroke="rgb(255,255,255)" stroke-width="1" opacity="0.07450980392156863" d="M 90.5 24 L 92 26.5 L 91 26.5 L 90.5 24 Z " /><path fill="rgb(255,255,255)" stroke="rgb(255,255,255)" stroke-width="1" opacity="0.07450980392156863" d="M 0.5 36 L 1 38.5 L 0 38.5 L 0.5 36 Z " /><path fill="rgb(255,255,255)" stroke="rgb(255,255,255)" stroke-width="1" opacity="0.07450980392156863" d="M 95.5 36 L 96 38.5 L 95 38.5 L 95.5 36 Z " /><path fill="rgb(255,255,255)" stroke="rgb(255,255,255)" stroke-width="1" opacity="0.07450980392156863" d="M 0.5 57 L 1 59.5 L 0 59.5 L 0.5 57 Z " /><path fill="rgb(255,255,255)" stroke="rgb(255,255,255)" stroke-width="1" opacity="0.07450980392156863" d="M 95.5 57 L 96 59.5 L 95 59.5 L 95.5 57 Z " /><path fill="rgb(255,255,255)" stroke="rgb(255,255,255)" stroke-width="1" opacity="0.07450980392156863" d="M 91.5 69 L 92 70.5 L 90 71.5 L 91.5 69 Z " /><path fill="rgb(255,255,255)" stroke="rgb(255,255,255)" stroke-width="1" opacity="0.07450980392156863" d="M 6.5 73 L 11 78.5 L 7 75.5 L 6.5 73 Z " /><path fill="rgb(255,255,255)" stroke="rgb(255,255,255)" stroke-width="1" opacity="0.07450980392156863" d="M 89.5 73 L 89 74.5 L 79.5 86 L 73.5 90 L 74.5 88 L 85 79.5 L 89.5 73 Z " /><path fill="rgb(255,255,255)" stroke="rgb(255,255,255)" stroke-width="1" opacity="0.07450980392156863" d="M 11.5 80 L 23 89.5 L 21.5 89 Q 14.4 85.8 11.5 80 Z " /><path fill="rgb(255,255,255)" stroke="rgb(255,255,255)" stroke-width="1" opacity="0.07450980392156863" d="M 24.5 90 L 29 92.5 L 27.5 93 L 24.5 90 Z " /><path fill="rgb(255,255,255)" stroke="rgb(255,255,255)" stroke-width="1" opacity="0.07450980392156863" d="M 71.5 90 L 70.5 92 L 67.5 93 L 67.5 92 L 71.5 90 Z " /><path fill="rgb(255,255,255)" stroke="rgb(255,255,255)" stroke-width="1" opacity="0.07450980392156863" d="M 30.5 93 L 35 94.5 L 32.5 95 L 30.5 93 Z " /><path fill="rgb(255,255,255)" stroke="rgb(255,255,255)" stroke-width="1" opacity="0.07450980392156863" d="M 64.5 93 L 66 93.5 L 61.5 95 L 61.5 94 L 64.5 93 Z " /><path fill="rgb(255,255,255)" stroke="rgb(255,255,255)" stroke-width="1" opacity="0.07450980392156863" d="M 36.5 95 L 39 95.5 L 36.5 96 L 36.5 95 Z " /><path fill="rgb(255,255,255)" stroke="rgb(255,255,255)" stroke-width="1" opacity="0.07450980392156863" d="M 57.5 95 L 60 95.5 L 57.5 96 L 57.5 95 Z " /><path fill="rgb(197,197,197)" stroke="rgb(197,197,197)" stroke-width="1" opacity="1" d="M 31.5 14 L 37 14.5 L 31.5 15 L 31.5 14 Z " /><path fill="rgb(197,197,197)" stroke="rgb(197,197,197)" stroke-width="1" opacity="1" d="M 43.5 17 L 45.5 20 L 43.5 17 Z " /><path fill="rgb(197,197,197)" stroke="rgb(197,197,197)" stroke-width="1" opacity="1" d="M 32.5 19 L 33 21.5 L 32 21.5 L 32.5 19 Z " /><path fill="rgb(197,197,197)" stroke="rgb(197,197,197)" stroke-width="1" opacity="1" d="M 59.5 21 L 62 21.5 L 59.5 22 L 59.5 21 Z " /><path fill="rgb(197,197,197)" stroke="rgb(197,197,197)" stroke-width="1" opacity="1" d="M 63.5 22 L 64.5 24 L 63.5 22 Z " /><path fill="rgb(197,197,197)" stroke="rgb(197,197,197)" stroke-width="1" opacity="1" d="M 34.5 25 L 37.5 29 L 34.5 25 Z " /><path fill="rgb(197,197,197)" stroke="rgb(197,197,197)" stroke-width="1" opacity="1" d="M 65.5 25 L 66 27.5 L 65 27.5 L 65.5 25 Z " /><path fill="rgb(197,197,197)" stroke="rgb(197,197,197)" stroke-width="1" opacity="1" d="M 30.5 27 L 31.5 29 L 30.5 27 Z " /><path fill="rgb(197,197,197)" stroke="rgb(197,197,197)" stroke-width="1" opacity="1" d="M 61.5 28 L 62 32.5 L 61 32.5 L 61.5 28 Z " /><path fill="rgb(197,197,197)" stroke="rgb(197,197,197)" stroke-width="1" opacity="1" d="M 50.5 29 L 51.5 31 Q 48.7 31.7 50.5 29 Z " /><path fill="rgb(197,197,197)" stroke="rgb(197,197,197)" stroke-width="1" opacity="1" d="M 34.5 31 L 35.5 33 L 34.5 31 Z " /><path fill="rgb(197,197,197)" stroke="rgb(197,197,197)" stroke-width="1" opacity="1" d="M 63.5 38 L 62.5 40 L 63.5 38 Z " /><path fill="rgb(197,197,197)" stroke="rgb(197,197,197)" stroke-width="1" opacity="1" d="M 47.5 39 L 48 44.5 L 47 44.5 L 47.5 39 Z " /><path fill="rgb(197,197,197)" stroke="rgb(197,197,197)" stroke-width="1" opacity="1" d="M 47.5 50 L 48 53.5 L 47 53.5 L 47.5 50 Z " /><path fill="rgb(197,197,197)" stroke="rgb(197,197,197)" stroke-width="1" opacity="1" d="M 66.5 54 L 67.5 56 L 66.5 54 Z " /><path fill="rgb(197,197,197)" stroke="rgb(197,197,197)" stroke-width="1" opacity="1" d="M 62.5 57 L 64 59.5 L 63 59.5 L 62.5 57 Z " /><path fill="rgb(197,197,197)" stroke="rgb(197,197,197)" stroke-width="1" opacity="1" d="M 32.5 58 L 33 61.5 L 32 61.5 L 32.5 58 Z " /><path fill="rgb(197,197,197)" stroke="rgb(197,197,197)" stroke-width="1" opacity="1" d="M 38.5 58 L 55 58.5 L 38.5 59 L 38.5 58 Z " /><path fill="rgb(197,197,197)" stroke="rgb(197,197,197)" stroke-width="1" opacity="1" d="M 52.5 61 L 57 61.5 L 52.5 62 L 52.5 61 Z " /><path fill="rgb(197,197,197)" stroke="rgb(197,197,197)" stroke-width="1" opacity="1" d="M 42.5 66 L 48 66.5 L 42.5 67 L 42.5 66 Z " /><path fill="rgb(197,197,197)" stroke="rgb(197,197,197)" stroke-width="1" opacity="1" d="M 35.5 70 L 36 72.5 L 35 72.5 L 35.5 70 Z " /><path fill="rgb(197,197,197)" stroke="rgb(197,197,197)" stroke-width="1" opacity="1" d="M 37.5 80 L 39.5 83 L 37.5 80 Z " /><path fill="rgb(197,197,197)" stroke="rgb(197,197,197)" stroke-width="1" opacity="1" d="M 46.5 83 L 57 83.5 L 46.5 84 L 46.5 83 Z " /><path fill="rgb(16,16,16)" stroke="rgb(16,16,16)" stroke-width="1" opacity="1" d="M 32.5 15 Q 43.3 15.3 47 22.5 L 50 32 L 53 30.5 L 56.5 24 L 60.5 22 L 64 24.5 Q 66.3 27.7 65 34.5 L 60.5 40 L 51 43.5 L 51 55 L 58.5 55 Q 59.8 52.8 64.5 54 Q 68 55 67 60.5 L 66 64 Q 63 62.8 64 66.5 L 60 83 L 42.5 83 L 38 79.5 L 33 56.5 L 34.5 55 L 48 55 Q 49.9 52.3 49 45.5 L 48 44.5 L 48 35 L 41.5 35 L 33 30 L 30 25.5 L 29 18.5 L 30 16 L 32.5 15 Z M 32 18 L 33 26 Q 37 32 47 33 L 47 29 L 43 22 Q 40 17 32 18 Z M 60 25 Q 53 30 53 39 L 61 37 Q 63 34 62 27 L 60 25 Z M 36 57 L 36 63 L 64 62 L 64 57 L 36 57 Z M 47 65 L 46 66 L 39 66 L 40 79 L 42 80 L 58 80 L 61 71 L 61 65 L 47 65 Z " /><path fill="rgb(241,241,241)" stroke="rgb(241,241,241)" stroke-width="1" opacity="1" d="M 29.5 15 L 28.5 17 L 29.5 15 Z " /><path fill="rgb(241,241,241)" stroke="rgb(241,241,241)" stroke-width="1" opacity="1" d="M 46.5 20 L 47.5 22 L 46.5 20 Z " /><path fill="rgb(241,241,241)" stroke="rgb(241,241,241)" stroke-width="1" opacity="1" d="M 56.5 22 L 54.5 25 L 56.5 22 Z " /><path fill="rgb(241,241,241)" stroke="rgb(241,241,241)" stroke-width="1" opacity="1" d="M 50.5 28 L 51.5 30 L 50.5 28 Z " /><path fill="rgb(241,241,241)" stroke="rgb(241,241,241)" stroke-width="1" opacity="1" d="M 43.5 36 L 47 36.5 L 43.5 37 L 43.5 36 Z " /><path fill="rgb(241,241,241)" stroke="rgb(241,241,241)" stroke-width="1" opacity="1" d="M 54.5 36 L 57 37.5 L 55.5 38 L 54.5 36 Z " /><path fill="rgb(241,241,241)" stroke="rgb(241,241,241)" stroke-width="1" opacity="1" d="M 52.5 44 L 53 53.5 L 52 53.5 L 52.5 44 Z " /><path fill="rgb(241,241,241)" stroke="rgb(241,241,241)" stroke-width="1" opacity="1" d="M 47.5 45 L 48 49.5 L 47 49.5 L 47.5 45 Z " /><path fill="rgb(241,241,241)" stroke="rgb(241,241,241)" stroke-width="1" opacity="1" d="M 36.5 53 L 40 53.5 L 36.5 54 L 36.5 53 Z " /><path fill="rgb(241,241,241)" stroke="rgb(241,241,241)" stroke-width="1" opacity="1" d="M 54.5 53 L 58 53.5 L 54.5 54 L 54.5 53 Z " /><path fill="rgb(241,241,241)" stroke="rgb(241,241,241)" stroke-width="1" opacity="1" d="M 55.5 58 L 59 58.5 L 55.5 59 L 55.5 58 Z " /><path fill="rgb(241,241,241)" stroke="rgb(241,241,241)" stroke-width="1" opacity="1" d="M 47.5 61 L 52 61.5 L 47.5 62 L 47.5 61 Z " /><path fill="rgb(241,241,241)" stroke="rgb(241,241,241)" stroke-width="1" opacity="1" d="M 48.5 66 L 53 66.5 L 48.5 67 L 48.5 66 Z " /><path fill="rgb(241,241,241)" stroke="rgb(241,241,241)" stroke-width="1" opacity="1" d="M 64.5 68 L 65 70.5 L 64 70.5 L 64.5 68 Z " /><path fill="rgb(241,241,241)" stroke="rgb(241,241,241)" stroke-width="1" opacity="1" d="M 40.5 72 L 41 74.5 L 40 74.5 L 40.5 72 Z " /><path fill="rgb(241,241,241)" stroke="rgb(241,241,241)" stroke-width="1" opacity="1" d="M 35.5 73 L 36 75.5 L 35 75.5 L 35.5 73 Z " /></svg>